<svg width="1200" height="630" viewBox="0 0 1200 630" fill="none" xmlns="http://www.w3.org/2000/svg">
  <!-- Background -->
  <rect width="1200" height="630" fill="#1E293B"/>
  
  <!-- Decorative Elements -->
  <circle cx="200" cy="315" r="160" fill="#EAB308" fill-opacity="0.1"/>
  <circle cx="1000" cy="315" r="160" fill="#EAB308" fill-opacity="0.1"/>
  
  <!-- Main Logo - Pear -->
  <g transform="translate(600,315) rotate(-20) scale(3) translate(-100,-150)">
    <!-- Pear Body -->
    <path d="M100 40C80 40 70 60 70 70C70 80 80 90 100 90C120 90 130 80 130 70C130 60 120 40 100 40Z" fill="#4ADE80"/>
    <path d="M100 80C60 80 20 120 20 180C20 240 50 280 100 280C150 280 180 240 180 180C180 120 140 80 100 80Z" fill="#EAB308"/>
    
    <!-- Leaf -->
    <path d="M100 40C100 40 110 20 130 20C150 20 150 40 150 40C150 40 130 50 100 40Z" fill="#4ADE80"/>
  </g>
  
  <!-- Title -->
  <text x="600" y="500" font-family="Arial, sans-serif" font-size="64" font-weight="bold" fill="white" text-anchor="middle">PAER</text>
  
  <!-- Subtitle -->
  <text x="600" y="570" font-family="Arial, sans-serif" font-size="32" fill="#94A3B8" text-anchor="middle">AI-Powered Writing Assistant</text>
</svg> 